<?xml version="1.0" standalone="no"?>
<!DOCTYPE svg PUBLIC "-//W3C//DTD SVG 20010904//EN"
 "http://www.w3.org/TR/2001/REC-SVG-20010904/DTD/svg10.dtd">
<svg version="1.0" xmlns="http://www.w3.org/2000/svg"
 width="1920.000000pt" height="1920.000000pt" viewBox="0 0 1920.000000 1920.000000"
 preserveAspectRatio="xMidYMid meet">
<metadata>
Created by potrace 1.14, written by Peter Selinger 2001-2017
</metadata>
<g transform="translate(0.000000,1920.000000) scale(0.100000,-0.100000)"
fill="#000000" stroke="none">
<path d="M8851 14798 c-15 -5 -21 -17 -23 -40 -2 -52 2 -122 9 -138 3 -8 7
-22 9 -31 5 -23 80 -180 103 -213 10 -16 17 -35 14 -43 -3 -8 -9 -11 -12 -6
-3 5 -26 24 -51 43 -25 19 -61 49 -80 67 -19 18 -41 33 -48 33 -7 0 -11 4 -7
10 3 5 -6 17 -21 26 -14 10 -30 29 -36 43 -10 24 -11 25 -18 6 -4 -11 -6 -23
-4 -27 3 -4 0 -9 -4 -12 -9 -5 -7 -47 3 -104 2 -13 18 -53 34 -89 29 -62 83
-124 236 -274 30 -29 44 -49 36 -53 -13 -9 -164 64 -244 117 -33 21 -82 61
-110 88 -29 27 -57 49 -63 49 -13 0 -25 -110 -18 -161 6 -40 44 -98 90 -138
18 -16 30 -32 27 -35 -4 -3 -2 -6 3 -6 6 0 20 -9 32 -20 12 -11 57 -35 99 -54
163 -69 223 -100 212 -107 -7 -4 -23 -3 -36 2 -13 5 -38 11 -56 14 -17 4 -36
10 -43 15 -6 6 -14 7 -17 4 -5 -5 -36 3 -127 32 -8 3 -15 5 -15 4 0 -4 -115
57 -154 81 -24 16 -48 26 -52 23 -24 -15 4 -138 39 -171 45 -44 148 -102 215
-123 50 -16 38 -30 -21 -24 -81 9 -220 11 -232 4 -13 -8 33 -51 102 -95 43
-27 65 -65 38 -65 -5 0 -10 -9 -10 -19 0 -22 52 -81 72 -81 8 0 19 -5 25 -11
11 -11 162 -55 197 -58 6 -1 5 -6 -1 -12 -7 -7 -41 -12 -77 -12 -66 0 -66 0
-49 -21 31 -38 59 -63 82 -76 18 -9 20 -15 12 -23 -7 -7 -16 -13 -22 -13 -5
-1 -12 -2 -16 -3 -20 -3 78 -72 124 -86 57 -18 69 -39 27 -49 l-27 -7 34 -23
c56 -37 98 -50 199 -61 38 -5 61 -8 90 -15 3 0 -3 -5 -12 -11 -10 -5 -18 -16
-18 -23 0 -16 54 -41 69 -32 5 4 12 2 16 -3 3 -5 15 -8 27 -6 11 3 28 1 36 -4
12 -7 10 -11 -9 -25 -13 -9 -30 -16 -38 -16 -18 0 -1 -20 20 -24 8 -2 30 -6
49 -10 19 -4 54 -8 78 -10 52 -4 61 -11 33 -26 -12 -6 -21 -17 -21 -25 0 -12
19 -14 103 -12 56 1 107 5 112 8 16 8 40 5 40 -6 1 -34 23 -46 96 -52 80 -6
91 -10 70 -22 -25 -16 30 -35 96 -34 53 0 61 -2 54 -15 -10 -19 -3 -52 13 -53
6 0 20 -2 31 -5 11 -2 42 1 69 6 27 6 51 8 54 5 3 -3 0 -16 -8 -29 -11 -22
-15 -48 -11 -82 1 -10 23 -22 73 -37 9 -3 37 7 62 23 43 28 53 26 46 -5 -9
-42 -9 -57 0 -79 8 -22 16 -26 51 -26 31 0 40 -3 36 -14 -8 -20 4 -28 20 -14
21 17 35 -9 20 -36 -6 -12 -10 -24 -9 -28 1 -5 -3 -8 -9 -8 -8 0 -8 -4 1 -15
16 -20 92 -30 119 -15 26 14 51 -1 51 -31 0 -14 7 -19 30 -19 20 0 30 -5 30
-15 0 -8 3 -15 8 -15 4 0 13 -9 20 -20 10 -16 9 -25 -7 -52 -13 -20 -17 -37
-12 -47 9 -17 7 -42 -5 -69 -16 -38 -21 -96 -10 -130 4 -11 8 -29 10 -39 11
-52 87 -225 107 -243 3 -3 12 -23 21 -45 l16 -40 103 0 c57 0 107 -3 110 -8 3
-4 -9 -37 -27 -74 -18 -37 -31 -70 -29 -73 2 -4 -28 -22 -67 -41 -104 -50
-228 -176 -286 -292 -20 -40 -37 -74 -37 -77 -3 -24 -42 -83 -59 -90 -26 -10
-57 -38 -74 -68 -30 -54 -54 -102 -56 -114 -4 -30 -49 -109 -59 -105 -6 2 -24
29 -40 59 -29 58 -72 90 -112 84 -17 -3 -20 -10 -17 -49 2 -26 1 -47 -3 -47
-3 0 -22 12 -40 26 -37 28 -101 40 -123 22 -21 -18 -39 -59 -46 -106 -7 -55
-15 -68 -70 -120 -63 -60 -88 -116 -89 -204 0 -15 -4 -25 -7 -23 -13 8 -46
-40 -48 -67 -1 -14 5 -46 14 -70 28 -78 28 -97 -1 -108 -32 -12 -40 -32 -27
-70 10 -27 8 -32 -21 -55 -18 -14 -38 -30 -45 -36 -7 -6 -28 -13 -47 -16 -31
-5 -36 -3 -45 23 -6 16 -18 43 -26 61 -8 18 -21 50 -30 71 -39 89 -157 253
-239 334 -138 137 -400 285 -555 314 -14 3 -39 9 -56 15 -17 5 -44 11 -60 14
-16 2 -55 9 -87 15 -32 6 -77 14 -100 17 -72 9 -1477 11 -1477 2 0 -9 5 -11
50 -14 116 -9 142 -17 179 -54 41 -41 59 -91 66 -180 2 -34 7 -67 11 -73 4 -6
3 -8 -4 -4 -7 4 -8 -2 -4 -21 8 -31 7 -1873 -1 -2069 -9 -215 -31 -320 -77
-366 -16 -15 -39 -29 -52 -29 -72 -4 -110 -8 -116 -13 -20 -20 41 -23 303 -14
77 3 169 2 205 -2 36 -5 110 -11 165 -14 55 -3 156 -9 225 -13 260 -16 514 -8
647 21 15 4 38 9 51 11 12 3 32 7 44 10 12 2 44 12 72 21 48 15 77 27 154 60
17 7 33 13 35 12 1 -1 21 11 44 25 24 15 45 27 48 27 5 0 36 21 114 78 159
114 334 339 419 539 25 59 44 108 42 108 -1 0 7 23 18 50 11 28 20 55 20 60 1
6 8 39 17 75 34 141 44 253 41 432 -3 152 -1 174 11 162 8 -8 19 -14 24 -14 5
0 17 -16 26 -35 9 -19 20 -35 25 -35 4 0 8 -5 8 -11 0 -18 68 -90 129 -137 67
-51 117 -67 167 -53 29 8 41 6 68 -10 28 -16 48 -19 122 -16 93 4 130 17 203
71 40 29 54 21 65 -36 8 -42 46 -78 82 -78 37 0 58 43 66 134 6 73 14 121 18
121 1 0 3 9 4 20 10 78 17 95 41 95 14 0 28 0 31 -1 4 0 10 4 13 10 11 17 89
13 141 -5 51 -19 66 -15 121 36 68 65 114 101 131 104 7 1 18 4 23 7 6 3 33
12 60 19 28 7 91 32 142 56 50 24 103 46 117 50 14 3 26 12 26 20 0 8 4 14 9
14 10 0 23 41 27 90 2 19 5 45 8 57 2 12 7 53 11 90 10 109 9 108 75 139 54
25 61 31 71 68 5 23 14 52 19 66 14 40 46 209 55 290 2 19 6 58 10 85 3 28 7
84 9 125 2 41 5 80 5 86 1 7 34 28 74 48 115 59 111 52 108 153 -1 49 -2 142
-4 207 l-2 119 29 4 c26 4 28 2 22 -21 -10 -39 17 -58 78 -55 28 2 56 7 63 12
19 14 35 -1 23 -22 -5 -10 -12 -33 -15 -51 -4 -25 -1 -36 16 -51 12 -10 25
-19 28 -20 3 0 15 -2 26 -4 11 -2 39 7 62 21 51 30 68 31 53 5 -29 -56 -1
-120 52 -116 18 1 27 -8 41 -38 10 -23 16 -49 15 -60 -2 -15 6 -22 37 -32 22
-7 65 -26 95 -42 30 -17 72 -36 93 -43 58 -18 45 -32 -25 -25 -102 10 -219 12
-224 4 -6 -11 42 -55 93 -85 48 -29 84 -74 58 -74 -41 0 1 -76 57 -103 30 -14
37 -26 67 -117 19 -56 50 -127 68 -158 18 -30 36 -65 39 -78 9 -36 30 -47 92
-49 46 -1 104 -15 131 -32 2 -1 -3 -13 -12 -26 -8 -13 -21 -41 -27 -63 -11
-35 -19 -42 -77 -69 -36 -16 -86 -50 -112 -75 -62 -61 -150 -159 -152 -168 -1
-4 -22 -50 -46 -103 -34 -73 -53 -100 -77 -114 -40 -23 -66 -50 -66 -69 0 -8
-3 -16 -7 -18 -9 -3 -27 -40 -69 -135 -15 -35 -29 -63 -33 -63 -9 0 -33 17
-30 21 1 2 -8 23 -20 47 -26 51 -69 80 -110 74 -27 -4 -29 -6 -20 -29 13 -36
11 -63 -6 -63 -8 0 -15 3 -15 8 0 4 -15 15 -32 25 -97 52 -135 21 -163 -133
-2 -14 -27 -46 -54 -72 -27 -26 -46 -50 -43 -53 3 -3 1 -5 -5 -5 -16 0 -44
-78 -48 -129 -2 -30 -8 -47 -21 -54 -41 -22 -44 -64 -14 -152 26 -74 26 -74
-9 -86 -35 -12 -42 -34 -25 -70 14 -28 18 -22 -68 -91 -11 -10 -36 -18 -53
-18 -47 0 -58 -19 -51 -84 14 -115 40 -170 103 -218 25 -18 60 -58 78 -89 81
-132 244 -237 312 -201 15 8 27 7 49 -4 50 -27 67 -29 175 -22 58 4 75 11 129
46 34 23 68 42 75 42 15 0 25 -22 25 -53 1 -30 21 -54 60 -71 31 -13 35 -12
57 9 20 18 25 34 29 96 2 41 14 116 25 167 20 85 23 92 46 92 13 0 34 5 45 11
23 12 152 -4 174 -22 12 -10 56 22 131 94 31 31 63 50 102 62 31 10 65 21 76
25 11 4 22 7 25 8 11 1 95 36 100 42 8 9 61 33 100 45 48 15 77 61 85 138 4
34 8 73 10 87 3 14 7 50 10 80 8 81 10 84 74 115 54 26 60 32 70 71 6 24 11
45 10 46 0 2 5 17 11 33 6 17 13 44 16 60 2 17 6 41 9 55 2 14 7 36 10 50 11
56 33 229 34 265 0 11 1 48 1 82 l1 62 77 41 c104 56 112 65 112 117 0 25 5
43 11 43 7 0 9 -10 5 -24 -12 -50 42 -69 127 -45 22 6 41 8 45 5 3 -3 -3 -21
-13 -39 -47 -88 44 -144 135 -83 l41 27 -6 -55 c-8 -66 13 -96 63 -90 25 3 30
0 25 -12 -4 -11 0 -14 21 -10 30 5 33 -6 11 -57 l-15 -35 32 -11 c42 -15 74
-14 107 4 29 14 29 14 36 -21 6 -33 8 -35 36 -29 25 6 29 4 29 -14 0 -11 10
-29 22 -40 20 -20 21 -22 4 -40 -11 -13 -16 -33 -15 -62 1 -24 -5 -60 -13 -80
-9 -20 -14 -54 -12 -76 5 -53 57 -210 91 -271 14 -26 32 -60 40 -77 8 -16 18
-37 22 -45 7 -12 30 -15 115 -15 114 0 116 -1 92 -51 -8 -16 -24 -50 -34 -75
-15 -34 -28 -49 -53 -59 -19 -7 -46 -22 -61 -32 -16 -11 -28 -16 -28 -12 0 4
-41 -35 -90 -87 -79 -82 -98 -109 -149 -214 -51 -103 -65 -123 -94 -137 -37
-18 -74 -75 -119 -186 -12 -31 -26 -58 -30 -60 -5 -2 -8 -10 -8 -19 0 -24 -24
-10 -41 24 -31 62 -51 85 -85 99 -44 19 -80 4 -64 -26 15 -28 12 -60 -5 -60
-8 0 -15 4 -15 8 0 14 -63 45 -96 47 -46 4 -70 -26 -89 -110 -14 -63 -21 -76
-67 -120 -58 -55 -88 -114 -92 -183 -2 -32 -7 -47 -16 -47 -18 0 -40 -42 -40
-76 0 -15 7 -46 16 -70 28 -79 28 -89 -6 -100 -25 -9 -30 -16 -30 -44 0 -19 5
-37 11 -40 11 -8 -27 -55 -44 -55 -5 0 -15 -7 -22 -16 -6 -9 -29 -18 -50 -21
l-38 -4 6 238 c8 336 23 384 125 389 26 1 53 3 60 3 7 1 11 5 8 10 -8 12 -654
12 -661 0 -4 -5 4 -9 17 -10 114 -3 158 -18 182 -63 27 -51 28 -67 33 -428 l5
-348 -48 -1 c-304 -6 -1138 1 -1143 10 -8 13 -5 596 4 676 12 108 43 146 125
151 25 2 48 3 53 3 4 1 7 5 7 10 0 5 -141 9 -330 9 -197 0 -330 -3 -330 -9 0
-5 10 -9 23 -10 74 -3 96 -7 128 -22 44 -22 67 -68 76 -150 8 -82 7 -1465 -1
-1587 -3 -52 -11 -113 -16 -135 -6 -22 -12 -48 -15 -58 -2 -9 -7 -22 -10 -27
-12 -20 -64 -40 -93 -36 -25 3 -70 -10 -52 -15 23 -6 672 -4 682 3 15 9 16 9
-72 12 -119 4 -151 39 -170 187 -14 104 -19 868 -6 876 7 5 1066 8 1165 4 l23
-1 -5 -427 c-7 -462 -7 -474 -31 -557 -19 -63 -38 -79 -106 -82 -65 -3 -64 -3
-56 -11 10 -10 656 -12 681 -2 24 9 17 10 -76 13 -100 3 -144 42 -155 139 -3
23 -7 53 -10 67 -3 14 -8 237 -10 495 -4 426 -3 468 11 450 30 -39 77 -84 94
-90 9 -3 25 -24 36 -48 27 -57 142 -169 206 -201 56 -28 89 -32 119 -16 14 8
29 5 58 -10 33 -17 53 -20 128 -16 49 2 89 5 89 6 0 1 9 3 19 5 10 2 22 7 25
12 3 4 18 14 33 22 15 8 36 22 47 32 18 17 21 17 35 3 9 -8 16 -27 16 -40 0
-30 50 -84 77 -84 10 0 29 9 42 19 19 15 24 29 27 77 3 72 9 115 24 174 6 25
12 55 14 68 4 28 0 26 62 41 30 7 68 9 90 5 22 -4 48 -8 59 -10 11 -2 31 -6
45 -9 20 -4 36 6 80 46 89 82 111 96 195 122 90 28 148 50 155 57 11 11 98 50
112 50 17 0 53 39 62 66 3 11 8 42 11 69 4 28 8 61 11 75 2 14 7 57 10 95 5
55 10 74 27 87 12 10 28 18 36 18 26 0 79 49 84 77 6 35 14 69 22 93 6 20 11
40 19 91 3 19 10 58 16 88 14 77 24 158 24 218 1 29 3 53 6 53 3 0 5 26 4 57
l0 58 79 40 c44 22 86 50 94 62 15 22 17 71 8 218 -2 39 -6 120 -9 180 -4 61
-8 120 -11 133 -2 12 -7 66 -11 120 -11 161 -13 147 19 144 l27 -3 -16 40 -16
41 38 43 c21 23 40 44 44 47 3 3 7 61 9 130 1 69 5 128 9 132 4 4 18 9 32 12
24 4 35 7 78 22 9 3 46 8 82 9 36 2 82 6 104 9 26 5 46 2 61 -8 24 -16 54 -14
102 5 16 7 46 13 67 15 55 4 73 30 70 102 -2 65 -10 109 -24 147 -14 37 -13
43 11 50 39 13 134 75 180 117 25 24 67 61 95 83 83 68 194 182 195 202 2 55
9 107 16 114 7 7 93 27 183 43 14 3 25 5 25 6 0 1 16 3 35 5 19 3 46 7 60 10
28 6 84 16 115 20 11 1 36 5 55 9 77 13 98 16 170 23 41 4 80 7 85 7 26 0 120
-26 132 -36 7 -6 13 -8 13 -5 0 3 17 -3 38 -13 34 -17 38 -18 50 -3 22 29 18
134 -9 238 -16 59 -60 135 -78 135 -9 0 -43 -30 -76 -66 -57 -64 -119 -113
-147 -118 -7 -1 -19 -5 -25 -9 -7 -5 -13 -6 -13 -2 0 3 -16 -2 -36 -10 -20 -8
-47 -17 -59 -19 -13 -2 -67 -17 -121 -32 -55 -15 -106 -28 -114 -28 -9 -1 -20
-5 -26 -8 -10 -7 -103 -31 -176 -47 -21 -5 -40 -6 -43 -2 -4 3 -30 10 -59 16
-73 15 -113 2 -161 -50 -39 -42 -68 -59 -118 -69 -12 -3 -83 -21 -157 -41
-192 -51 -177 -50 -217 -15 -30 26 -40 30 -67 24 -17 -4 -41 -8 -53 -8 -13 -1
-23 -4 -23 -9 0 -4 -3 -6 -7 -5 -5 1 -23 -1 -41 -5 -32 -6 -33 -8 -29 -50 l4
-44 -51 -13 c-55 -15 -57 -15 -98 -23 -27 -5 -27 -5 -23 38 3 35 -1 48 -19 67
-13 13 -35 47 -51 75 -34 63 -90 121 -124 130 -15 3 -32 10 -38 15 -19 15 -79
12 -104 -5 -14 -10 -33 -14 -52 -10 -21 4 -32 2 -38 -9 -5 -8 -29 -21 -53 -28
-25 -7 -47 -18 -50 -26 -16 -41 -68 10 -124 121 -22 44 -49 91 -61 104 -12 13
-21 32 -21 41 0 26 -47 113 -55 101 -9 -15 -35 -14 -35 2 0 7 -8 31 -19 53
-10 21 -24 63 -31 92 -6 28 -16 52 -21 52 -5 0 -9 -4 -9 -10 0 -49 -73 133
-84 209 -3 19 -10 37 -16 41 -6 4 -15 36 -20 71 -5 35 -11 73 -13 84 -9 41
-20 223 -18 295 2 67 5 78 30 105 40 42 53 71 57 127 2 27 6 52 8 57 5 7 94
29 146 36 8 1 53 9 100 18 82 16 112 21 183 32 17 3 43 7 57 10 14 3 48 7 75
10 28 3 75 9 107 14 35 4 73 3 100 -4 23 -6 46 -11 51 -12 19 -4 103 -37 115
-46 8 -6 17 -5 27 3 11 9 14 32 11 103 -2 51 -6 99 -8 107 -3 8 -10 33 -16 55
-15 50 -47 104 -68 112 -11 4 -38 -18 -89 -74 -57 -62 -87 -85 -129 -102 -29
-13 -60 -24 -67 -25 -8 -1 -34 -8 -59 -15 -25 -7 -53 -15 -63 -17 -10 -1 -32
-8 -50 -13 -41 -14 -284 -81 -317 -88 -47 -10 -70 -10 -70 -2 0 5 -10 9 -22 9
-13 -1 -38 2 -56 6 -40 8 -122 -13 -122 -32 0 -7 -11 -21 -25 -32 -14 -11 -25
-26 -25 -33 0 -7 -3 -10 -6 -6 -3 3 -27 -1 -52 -9 -26 -9 -74 -22 -107 -30
-33 -9 -67 -17 -75 -19 -8 -2 -53 -14 -99 -27 l-85 -23 -33 33 c-21 20 -41 31
-51 28 -17 -5 -40 -10 -97 -21 -78 -14 -76 -12 -72 -56 5 -46 3 -47 -92 -73
-73 -20 -85 -14 -76 42 5 27 2 37 -17 52 -13 10 -35 39 -48 65 -27 53 -96 135
-113 135 -7 1 -30 9 -51 19 -31 15 -46 17 -75 9 -20 -6 -41 -14 -48 -19 -6 -6
-22 -7 -35 -4 -16 4 -31 0 -46 -13 -13 -11 -38 -23 -56 -26 -19 -4 -37 -13
-40 -21 -16 -43 -65 5 -130 129 -26 50 -54 95 -62 101 -9 6 -14 15 -12 20 1 6
-8 36 -22 68 -16 38 -27 54 -34 47 -18 -18 -32 -10 -46 28 -8 20 -13 40 -12
45 1 4 -2 7 -8 7 -5 0 -12 17 -15 38 -13 82 -15 85 -31 71 -8 -6 -16 -10 -18
-8 -11 12 -65 180 -69 213 -3 21 -10 42 -17 46 -6 4 -18 56 -27 117 -15 110
-15 110 6 140 19 25 26 54 31 128 2 29 49 45 240 78 14 3 63 12 110 20 47 9
105 19 130 22 25 3 56 8 70 10 183 26 185 26 305 -9 22 -6 71 -27 87 -36 26
-15 41 13 41 78 1 141 -56 302 -107 302 -7 0 -33 -23 -57 -52 -85 -100 -107
-114 -244 -155 -110 -33 -326 -92 -364 -99 -14 -3 -28 -7 -33 -10 -4 -3 -16
-7 -25 -9 -10 -2 -37 -8 -60 -13 -33 -8 -43 -7 -47 4 -3 8 -12 11 -20 8 -8 -3
-30 -1 -48 5 l-33 11 2 136 c1 75 4 142 7 150 8 21 -23 2 -61 -36 -59 -61 -81
-125 -88 -260 -2 -41 -4 -79 -5 -85 -3 -37 -70 152 -70 199 0 25 -2 27 -17 15
-18 -15 -45 -73 -50 -104 -8 -61 -9 -142 0 -152 7 -9 4 -13 -9 -13 -11 0 -28
-3 -39 -6 -17 -4 -22 2 -33 39 -7 24 -15 52 -16 62 -2 11 -7 20 -13 22 -12 4
-64 -90 -72 -131 -6 -26 -13 -31 -59 -44 l-53 -15 -33 32 c-35 34 -47 35 -135
11 -19 -5 -38 -7 -43 -4 -4 3 -8 1 -8 -4 0 -6 -8 -9 -17 -8 -15 1 -18 -7 -16
-44 2 -46 2 -46 -40 -58 -23 -7 -52 -14 -65 -17 -13 -2 -32 -7 -43 -10 -20 -7
-24 7 -19 63 1 14 -11 35 -29 54 -17 18 -31 37 -31 43 0 7 -18 37 -41 69 -64
89 -180 135 -239 93 -12 -8 -30 -12 -41 -10 -11 3 -41 -6 -69 -21 -27 -15 -52
-26 -54 -24 -3 2 -15 -5 -26 -15 -12 -10 -26 -14 -34 -10 -25 14 -62 67 -94
134 -17 36 -42 77 -54 92 -13 15 -25 39 -26 54 -1 15 -6 29 -10 32 -5 3 -14
21 -21 39 -11 27 -16 30 -28 20 -12 -10 -18 -9 -29 7 -8 10 -14 25 -14 32 0 8
-6 24 -14 36 -15 23 -32 102 -27 127 2 11 -2 11 -18 -4 -20 -18 -21 -18 -31
10 -6 16 -19 52 -30 79 -10 28 -21 68 -25 90 -4 22 -13 51 -20 65 -14 26 -33
121 -44 225 -5 56 -7 216 -2 400 1 44 2 96 2 115 0 19 2 50 3 68 2 17 2 32 0
32 -3 0 -46 -37 -69 -59 -20 -19 -36 -41 -30 -41 3 0 -2 -11 -10 -24 -9 -13
-18 -33 -20 -45 -3 -11 -7 -31 -10 -43 -8 -32 -8 -185 -1 -197 4 -5 2 -12 -4
-16 -5 -3 -10 -1 -10 4 0 20 -2 26 -10 36 -11 14 -60 172 -60 196 0 10 -4 19
-10 19 -5 0 -10 -7 -10 -15 0 -7 -6 -18 -13 -22 -19 -12 -39 -89 -38 -148 1
-55 2 -64 26 -145 8 -30 17 -63 20 -73 2 -9 6 -21 9 -25 5 -9 -11 -39 -17 -32
-42 53 -115 206 -123 262 -4 21 -12 38 -19 38 -7 0 -27 -29 -44 -64 -32 -62
-33 -65 -21 -122 16 -79 31 -112 74 -168 20 -26 36 -52 36 -57 0 -50 -126 86
-165 177 l-16 39 -20 -24 c-34 -41 -27 -128 16 -192 23 -35 24 -40 9 -46 -11
-4 -23 1 -34 15 -10 12 -20 18 -24 15 -3 -4 -6 -1 -6 6 0 7 -7 11 -15 8 -8 -4
-17 -2 -20 3 -4 6 -11 10 -16 10 -14 0 -1 -48 27 -98 23 -43 23 -44 4 -49 -11
-3 -21 -12 -21 -19 -1 -8 -2 -20 -3 -26 -3 -19 18 -59 48 -91 31 -33 34 -51 7
-44 -23 6 -35 -15 -18 -32 6 -6 8 -11 4 -11 -4 0 -1 -13 8 -30 19 -37 19 -39
-6 -33 -19 5 -20 3 -14 -18 4 -13 14 -36 21 -51 8 -15 14 -29 14 -33 0 -13
-33 -2 -101 34 -41 21 -91 42 -111 45 -27 5 -55 23 -98 64 -33 32 -73 66 -89
75 -29 17 -29 17 -41 -13 l-12 -29 -37 28 c-20 15 -61 46 -92 69 -63 47 -119
105 -120 124 0 7 -5 3 -11 -9 -12 -25 -47 -41 -57 -26 -3 5 -22 20 -41 33 -83
58 -162 131 -181 167 -19 38 -30 47 -59 52 -28 3 -57 33 -164 166 -40 50 -80
96 -89 104 -9 7 -17 20 -17 27 0 8 -4 14 -9 14 -10 0 -91 131 -91 148 0 7 -4
12 -9 12 -8 0 -70 103 -132 220 -23 42 -33 56 -70 101 -18 21 -74 30 -108 17z
m4097 -1935 c-1 -5 4 -30 11 -56 21 -72 2 -79 -38 -16 -18 29 -30 58 -27 65 5
14 58 20 54 7z m-184 -78 c8 -25 24 -57 36 -72 25 -33 12 -53 -22 -34 -23 12
-50 50 -75 105 -16 36 -17 34 10 39 12 2 25 5 29 6 3 0 13 -19 22 -44z m-129
-31 c-2 -25 0 -55 6 -65 5 -10 13 -28 19 -39 5 -10 6 -21 2 -24 -13 -8 -72 -4
-78 6 -10 15 -24 8 -24 -13 0 -11 -4 -17 -10 -14 -5 3 -10 2 -10 -3 0 -5 -7
-9 -15 -9 -17 0 -16 30 3 63 14 26 18 72 8 95 -8 19 4 29 48 40 54 13 55 12
51 -37z m-243 -36 c5 -61 4 -75 -8 -99 -18 -36 -75 -79 -158 -118 -60 -28 -73
-31 -92 -20 -13 7 -36 9 -54 5 -49 -9 -72 8 -65 50 8 54 22 73 52 73 16 0 48
6 73 14 38 12 46 19 51 46 8 40 10 42 51 47 18 2 49 8 68 13 62 16 80 13 82
-11z m2713 -1106 c-3 -7 -8 -32 -11 -55 -9 -54 -19 -73 -42 -79 -16 -4 -22 2
-31 32 -6 20 -11 51 -11 67 0 26 5 31 38 39 52 14 64 13 57 -4z m-115 -16 c0
-3 -9 -20 -20 -39 -20 -33 -28 -57 -34 -102 -2 -11 -4 -23 -5 -27 -1 -6 -54
-22 -76 -23 -5 0 -10 6 -10 14 0 27 -20 21 -44 -14 -13 -19 -30 -35 -37 -35
-24 0 -29 -1 -42 -13 -8 -6 -28 -10 -46 -9 -18 1 -49 -4 -69 -13 -46 -19 -63
-20 -48 -2 6 8 9 16 6 19 -3 3 2 22 11 43 10 24 13 51 10 71 -8 40 -3 44 79
59 11 3 38 9 60 15 22 6 51 13 65 16 14 3 45 10 70 15 25 6 56 13 70 15 13 3
27 7 29 10 6 5 31 5 31 0z m-554 -146 c1 -8 3 -19 4 -25 12 -50 -5 -90 -55
-130 -23 -19 -49 -35 -58 -35 -8 0 -17 -3 -19 -8 -1 -4 -26 -19 -55 -33 -37
-18 -55 -23 -63 -15 -6 6 -36 11 -68 11 l-57 0 1 36 c2 64 11 86 36 84 31 -3
121 24 130 39 4 6 6 16 4 21 -10 28 29 49 118 61 16 2 32 6 35 9 11 11 46 0
47 -15z m549 -256 c9 -52 -8 -63 -33 -20 -20 33 -20 36 -4 45 26 16 29 14 37
-25z m-119 -146 c11 -22 12 -28 2 -28 -24 0 -35 15 -41 55 -6 37 -5 39 9 20 9
-11 22 -32 30 -47z m-256 -247 c17 -27 38 -55 46 -61 20 -18 17 -33 -6 -27
-17 4 -20 0 -20 -26 0 -18 7 -41 15 -51 17 -22 20 -40 6 -32 -5 4 -16 3 -24 0
-13 -5 -12 -12 9 -49 15 -27 20 -46 14 -50 -12 -7 -50 3 -50 14 0 4 -10 7 -21
8 -12 1 -31 11 -43 21 -20 19 -49 29 -110 39 -16 3 -38 16 -49 29 -27 34 -38
45 -90 84 -34 26 -46 42 -47 61 0 27 12 36 57 45 12 2 35 9 50 15 15 5 62 12
105 13 44 2 82 6 85 10 17 17 44 1 73 -43z m-6325 -454 c196 -27 351 -73 483
-143 41 -22 82 -43 93 -49 10 -5 19 -13 19 -17 0 -5 7 -8 15 -8 8 0 15 -4 15
-8 0 -4 12 -15 28 -24 29 -18 159 -142 205 -196 96 -113 252 -403 230 -426 -4
-3 -2 -6 4 -6 6 0 13 -12 16 -27 3 -16 15 -71 27 -123 41 -185 45 -341 16
-605 -3 -27 -8 -61 -12 -75 -3 -14 -8 -36 -11 -50 -26 -128 -102 -315 -165
-408 -91 -134 -253 -266 -417 -338 -31 -14 -65 -29 -76 -34 -26 -12 -161 -49
-200 -55 -16 -3 -57 -9 -90 -14 -89 -14 -340 -7 -485 14 -80 12 -187 52 -231
87 -29 24 -47 62 -54 113 -4 28 -9 61 -11 75 -14 95 -19 741 -15 2017 l1 263
25 16 c14 9 48 20 77 24 52 7 454 5 513 -3z m8859 -365 c8 -38 6 -43 -20 -66
-16 -14 -53 -37 -82 -51 -68 -34 -317 -116 -362 -120 -44 -4 -67 -9 -76 -18
-4 -4 -13 -7 -21 -7 -11 0 -11 5 -3 20 6 11 8 20 4 20 -3 0 -1 7 6 15 7 9 14
41 15 71 1 62 6 67 70 79 22 5 45 9 50 11 108 26 237 56 260 60 17 2 50 11 75
18 64 19 74 15 84 -32z m-685 -129 c0 -10 2 -29 4 -43 5 -41 -13 -79 -52 -108
-20 -15 -38 -29 -41 -32 -3 -3 -36 -21 -74 -39 -57 -26 -74 -31 -93 -22 -13 6
-43 8 -67 5 -50 -7 -60 6 -50 61 9 54 14 62 37 61 12 0 46 5 74 13 49 12 53
16 63 52 6 21 16 39 23 40 7 0 39 6 72 14 84 19 104 18 104 -2z"/>
<path d="M4360 10479 c0 -5 1 -9 3 -10 1 0 31 -2 67 -5 36 -3 82 -10 102 -15
63 -16 112 -84 125 -174 9 -57 9 -2170 1 -2291 -4 -55 -9 -107 -12 -115 -3 -8
-7 -31 -10 -51 -9 -58 -35 -115 -62 -133 -21 -14 -58 -20 -149 -24 -15 -1 -16
-4 -7 -13 9 -9 52 -11 155 -8 166 4 318 4 549 -1 153 -3 192 1 175 17 -3 3
-46 8 -96 10 -99 3 -138 18 -169 62 -25 34 -49 118 -57 195 -11 100 -18 530
-16 865 l1 64 245 -4 c230 -3 245 -4 259 -23 15 -19 37 -51 224 -321 137 -199
245 -349 254 -352 4 -2 8 -8 8 -13 0 -6 5 -15 10 -22 6 -7 45 -57 86 -112 179
-238 296 -328 463 -356 64 -11 483 -19 529 -11 43 8 16 25 -44 29 -53 3 -106
11 -170 26 -118 28 -301 189 -503 442 -31 39 -59 72 -63 73 -5 2 -8 10 -8 18
0 8 -3 14 -8 14 -4 0 -32 33 -62 73 -30 39 -59 77 -63 82 -5 6 -60 80 -123
165 -62 85 -117 160 -122 165 -4 6 -39 53 -77 105 -38 52 -72 97 -76 100 -4 3
20 34 53 70 80 86 168 195 168 208 0 6 3 12 8 14 22 9 98 150 136 251 59 156
76 369 41 497 -48 175 -145 308 -288 396 -81 50 -172 82 -317 110 -54 10
-1160 13 -1160 3z m1050 -134 c244 -75 397 -294 426 -610 6 -58 8 -160 4 -180
-1 -5 -2 -23 -2 -40 0 -16 -7 -61 -15 -100 -8 -38 -16 -78 -18 -89 -18 -81
-88 -208 -144 -259 -85 -77 -181 -105 -341 -102 -193 4 -322 26 -350 60 -18
22 -17 1305 1 1316 8 5 34 11 59 14 25 4 52 8 60 10 38 10 269 -5 320 -20z"/>
<path d="M2147 10454 c-1 -1 -49 -4 -107 -7 -58 -4 -116 -8 -130 -11 -14 -2
-45 -7 -70 -10 -252 -33 -685 -185 -706 -248 -8 -25 -8 -243 0 -351 5 -58 16
-141 30 -212 2 -11 6 -36 10 -56 4 -21 13 -42 21 -49 18 -15 17 -23 19 145 2
148 18 216 72 301 63 98 184 178 329 217 57 15 81 19 205 37 63 8 350 6 395
-4 144 -32 292 -94 365 -153 155 -126 264 -306 306 -503 3 -14 10 -45 15 -69
10 -46 13 -225 4 -276 -3 -16 -7 -43 -10 -60 -36 -211 -139 -409 -294 -562
-90 -89 -86 -86 -187 -158 -67 -48 -302 -173 -336 -179 -7 -1 -33 -9 -58 -18
-25 -10 -85 -29 -133 -44 -76 -23 -88 -30 -85 -48 3 -20 48 -36 137 -51 208
-33 527 -165 665 -275 142 -112 214 -188 288 -299 71 -108 140 -265 154 -351
2 -8 8 -33 13 -55 25 -98 35 -377 18 -512 -18 -144 -84 -346 -142 -435 -14
-21 -25 -41 -25 -46 0 -19 -151 -180 -215 -229 -111 -85 -272 -160 -405 -189
-47 -11 -50 -11 -52 -14 -2 -1 -14 -3 -28 -4 -14 -2 -59 -7 -100 -12 -122 -13
-364 -8 -485 10 -16 3 -46 7 -65 10 -167 23 -321 90 -408 178 -37 36 -104 145
-101 163 0 3 -4 29 -10 58 -5 28 -10 59 -10 67 -1 8 -4 76 -7 150 -3 74 -10
139 -14 144 -18 18 -44 -74 -55 -195 -4 -35 -8 -69 -10 -76 -8 -24 -19 -263
-19 -404 0 -122 3 -151 17 -173 47 -71 247 -148 486 -187 36 -5 67 -12 70 -13
25 -16 339 -23 471 -12 41 4 82 7 90 8 35 2 215 39 282 58 40 12 80 23 88 25
33 7 180 69 265 112 323 161 585 421 744 740 23 44 41 83 41 86 0 2 8 22 17
43 9 22 18 44 19 49 1 6 9 30 17 55 9 25 18 56 21 70 3 14 10 43 15 65 13 54
19 96 28 185 39 413 -75 748 -348 1020 -71 70 -210 180 -227 180 -6 0 -12 4
-14 8 -11 28 -283 158 -381 182 l-47 12 40 29 c22 16 43 29 46 29 8 0 166 120
232 177 435 374 609 836 470 1248 -66 194 -176 343 -346 468 -60 44 -189 113
-204 109 -5 -1 -8 3 -8 8 0 6 -3 9 -7 8 -5 -1 -46 10 -93 25 -81 25 -102 30
-179 43 -18 3 -43 8 -55 10 -27 6 -324 22 -329 18z"/>
<path d="M10633 7418 c-10 -12 -36 -75 -84 -203 -13 -33 -24 -64 -25 -70 -1
-5 -16 -48 -34 -95 -18 -47 -40 -107 -51 -135 -10 -27 -34 -92 -54 -142 -19
-51 -35 -99 -35 -107 0 -8 -4 -18 -10 -21 -5 -3 -10 -13 -10 -22 0 -8 -6 -29
-14 -46 -14 -33 -36 -92 -80 -212 -14 -38 -31 -83 -37 -100 -7 -16 -13 -34
-14 -40 -2 -9 -45 -124 -80 -215 -7 -19 -23 -62 -35 -95 -12 -33 -27 -72 -32
-87 -6 -15 -9 -28 -8 -30 2 -2 -6 -21 -17 -43 -12 -22 -21 -42 -21 -45 -1 -8
-13 -43 -30 -85 -62 -158 -104 -219 -169 -250 -32 -15 -61 -20 -148 -24 -15
-1 -16 -4 -7 -10 16 -10 598 -8 608 2 7 6 -29 12 -50 8 -23 -5 -94 31 -103 52
-11 27 -8 76 12 142 8 28 15 55 16 60 1 6 6 21 11 35 6 14 45 128 89 254 43
126 81 231 84 234 3 4 145 6 314 7 l309 0 30 -80 c38 -96 135 -350 161 -420
10 -27 30 -80 45 -117 38 -99 40 -124 14 -142 -17 -12 -19 -19 -10 -28 16 -16
543 -18 549 -2 2 7 -13 10 -44 8 -57 -2 -146 26 -180 58 -40 37 -67 94 -168
348 -53 135 -101 254 -105 265 -12 26 -38 94 -93 235 -91 232 -120 306 -139
360 -11 30 -26 69 -33 85 -8 17 -27 67 -44 110 -16 44 -35 94 -42 110 -7 17
-13 32 -13 35 -1 3 -15 41 -33 85 -17 44 -48 123 -68 175 -78 202 -96 231
-122 198z m78 -672 c44 -126 82 -237 84 -245 2 -9 18 -52 35 -96 17 -44 33
-88 35 -97 2 -9 9 -26 15 -38 6 -12 9 -25 5 -28 -6 -6 -545 -12 -545 -6 0 1
25 77 56 170 31 93 58 176 60 184 1 8 36 112 75 230 70 208 73 213 85 185 7
-17 50 -133 95 -259z"/>
<path d="M5568 7404 c-18 -17 -541 -25 -991 -15 -71 2 -131 0 -134 -3 -12 -12
7 -18 64 -21 102 -4 138 -35 157 -135 13 -62 14 -1524 2 -1670 -13 -152 -54
-206 -160 -209 -16 -1 -26 -4 -23 -7 6 -6 151 -9 925 -17 l173 -2 19 25 c10
13 18 27 17 30 -1 5 11 77 20 115 2 11 6 34 7 50 2 17 7 51 11 78 8 52 -10 69
-21 20 -15 -69 -36 -120 -56 -137 -53 -46 -169 -68 -353 -67 -133 0 -200 8
-240 29 -77 39 -77 46 -76 636 l1 278 188 -7 c237 -8 253 -10 304 -33 59 -26
78 -51 85 -111 3 -29 9 -48 13 -44 4 4 13 63 19 130 13 126 18 169 26 191 9
26 -7 34 -29 14 -11 -11 -32 -22 -46 -26 -14 -4 -145 -10 -292 -13 l-268 -5 0
402 0 402 213 -6 c258 -7 272 -8 330 -34 51 -23 75 -58 79 -116 1 -21 5 -39 9
-42 11 -7 18 23 25 121 7 99 10 130 13 130 2 0 4 17 7 38 4 34 -3 46 -18 31z"/>
<path d="M6050 7379 c0 -5 6 -9 13 -10 6 0 35 -2 62 -3 28 -1 63 -9 79 -17 32
-15 66 -65 74 -107 7 -37 6 -1624 0 -1692 -14 -136 -47 -193 -116 -196 -20 -1
-46 -3 -56 -3 -11 -1 -16 -4 -13 -8 4 -4 179 -8 390 -10 210 -1 465 -4 567 -6
102 -2 199 0 217 5 33 9 47 34 58 108 24 161 31 217 27 229 -7 19 -20 -7 -28
-55 -10 -66 -43 -112 -98 -139 -66 -31 -102 -36 -276 -40 -238 -4 -341 17
-379 79 -42 68 -48 182 -46 996 1 758 2 772 48 826 23 26 40 30 155 33 13 1
21 5 18 10 -7 11 -696 12 -696 0z"/>
<path d="M7645 7379 c-4 -5 9 -9 27 -10 122 -4 168 -28 191 -103 9 -31 12
-232 12 -836 0 -794 -3 -895 -24 -980 -20 -75 -39 -92 -104 -94 -32 0 -57 -6
-57 -11 0 -15 672 -14 677 0 2 6 -18 10 -49 9 -29 0 -69 3 -88 7 -41 9 -85 57
-94 101 -17 84 -21 286 -21 983 0 820 2 850 51 896 17 16 38 24 72 25 26 1 53
3 60 3 7 1 11 5 8 10 -8 12 -654 12 -661 0z"/>
<path d="M8820 7379 c0 -5 10 -9 23 -10 124 -5 156 -18 186 -78 10 -20 20 -63
22 -96 7 -105 4 -1836 -3 -1935 -8 -98 -35 -228 -62 -291 -18 -42 -76 -121
-114 -155 -15 -13 -67 -52 -116 -86 -97 -67 -102 -89 -10 -38 102 56 202 131
282 211 42 42 82 83 87 91 22 27 71 104 83 128 19 40 52 130 48 130 -2 0 3 21
11 48 27 89 27 92 37 1437 3 541 5 562 52 606 20 19 51 26 122 28 13 1 21 5
18 10 -8 12 -666 12 -666 0z"/>
</g>
</svg>
